<svg xmlns="http://www.w3.org/2000/svg" width="1200" height="420" viewBox="0 0 1200 420" role="img" aria-labelledby="title desc">
  <title id="title">논리 ERD 플레이스홀더</title>
  <desc id="desc">최종 ERD 이미지가 배치될 자리</desc>
  <rect width="1200" height="420" fill="#eaf7fc"/>
  <g fill="none" stroke="#b8dcea" stroke-width="3">
    <path d="M240 120H475M725 120H960M600 165V260M350 300H475M725 300H850"/>
    <rect x="80" y="65" width="160" height="110" rx="12"/>
    <rect x="475" y="65" width="250" height="100" rx="12"/>
    <rect x="960" y="65" width="160" height="110" rx="12"/>
    <rect x="190" y="250" width="160" height="110" rx="12"/>
    <rect x="475" y="250" width="250" height="110" rx="12"/>
    <rect x="850" y="250" width="160" height="110" rx="12"/>
  </g>
  <g fill="#d9eff7">
    <rect x="80" y="65" width="160" height="30" rx="12"/><rect x="475" y="65" width="250" height="30" rx="12"/><rect x="960" y="65" width="160" height="30" rx="12"/>
    <rect x="190" y="250" width="160" height="30" rx="12"/><rect x="475" y="250" width="250" height="30" rx="12"/><rect x="850" y="250" width="160" height="30" rx="12"/>
  </g>
</svg>
